<svg id="Layer_1" xmlns="http://www.w3.org/2000/svg" viewBox="7 170.2 249.4 90.7"><style>.st0{fill:#c6c505}.st1{fill:#4d4c43}</style><path class="st0" d="M183.1 221.7c-.6-17.7-14.9-31.6-32.6-31.6-7.8 0-15.4 2.8-21.4 8-.9.8-1.8 1.6-2.6 2.5-.8.9-1.6 1.8-2.3 2.8-2.3 3.1-4 6.6-5.1 10.3-.5 1.8-.9 3.8-1.1 5.6v.1c-.1 1.2-.2 2.2-.2 3.5 0 1-.1 2-.4 3-.4 1.6-1 3.1-2 4.5-2.5 3.8-6.8 6.1-11.3 6.1-7.5 0-13.6-6.1-13.6-13.8 0-2.6.8-5.1 2.2-7.2.2-.3.4-.6.6-.8 2.6-3.4 6.6-5.4 10.8-5.4 4.3 0 8.6 2.6 10.5 5 .3.3.7.5 1.1.4.4-.1.7-.4.8-.8.3-1.3.7-2.6 1.2-3.9 1.2-3.1 2.7-6 4.7-8.6l.2-.3c.5-.7.7-.9 1.3-1.6l.4-.4c.2-.2.3-.5.3-.8s-.2-.6-.4-.8l-.3-.3c-.5-.4-.5-.4-1.1-.9l-.2-.1c-3.8-2.6-8.1-4.4-12.6-5.3l11.4-16.1c.2-.3.3-.8.1-1.2s-.6-.6-1-.6H100c-.4 0-.7.2-.9.5l-21.9 31c-.7 1.1-1.4 2.3-2.1 3.5-.6 1.2-1.2 2.5-1.6 3.8-.5 1.3-.8 2.6-1.1 3.9-.5 2.2-.7 4.5-.7 6.7v.2c0 18 14.6 32.6 32.6 32.6 7.8 0 15.4-2.8 21.4-8 .9-.8 1.8-1.6 2.6-2.5.8-.9 1.6-1.8 2.3-2.8 2.3-3.1 4-6.6 5.1-10.3.8-2.9 1.3-5.9 1.3-8.9v-.2c0-.5 0-.9.1-1.4s.1-1 .3-1.5c.4-1.6 1-3.2 2-4.6 2.5-3.8 6.8-6.1 11.3-6.1 7.1 0 13.1 5.6 13.6 12.7v1c0 .7-.1 1.4-.2 2.1-1 6.6-6.8 11.6-13.5 11.6-4.6 0-7.7-1.5-10.4-5.1-.3-.3-.7-.5-1.1-.4-.4.1-.8.4-.9.8-.3 1.2-.6 2.3-1.1 3.7-1.1 3.1-2.7 6-4.7 8.6-.7.9-1.4 1.7-2.2 2.6-.1.1-.1.2-.2.3-.2.5-.1 1 .3 1.4 4.1 3.3 11 7.1 20.3 7.1 16.4 0 30.3-12.2 32.3-28.5.2-1.4.3-2.8.3-4.1-.1-.3-.1-.6-.1-1z"/><path class="st1" d="M13.2 216.4c-.1.6-.2 1.2-.2 1.8-.1 2.4.2 4.8.6 7.3.1 1.1.2 2.3.6 3.3.1-.1.1-.2.2-.3v-.1c.1-.3.3-.6.4-.9.3-.6.4-1.3.6-2s.3-1.6.4-2.6c-.1 0-.3 0-.4.1-.8.2-1.7-.5-1.8-1.3-.1-.9.4-1.6 1.3-1.8.9-.2 1.8 0 2.7 0 .9 0 1.4.9 1.4 1.7.1 1.8-.2 3.6-.7 5.3-.4 1.4-.9 2.9-1.9 4-.8.9-2 1.7-3.2 1.1-1.4-.6-2-2.3-2.3-3.7-.6-2.4-.8-5.1-1-7.6-.1-1.4-.1-2.9 0-4.3.2-1.1.4-2.6 1.3-3.5 1-1.1 2.5-1.7 4-1 1.4.7 2.4 1.9 3.5 3 .6.6.4 1.7-.2 2.2-.7.6-1.6.4-2.2-.2-.5-.5-1-1.1-1.4-1.5-.2-.2-.4-.3-.6-.5 0 0-.3-.1-.3-.2h-.2c-.1.1-.1.1-.2.3v.1l-.1.3c-.1.1-.1.3-.1.4-.2.5-.2.5-.2.6zM31 231.2c-.9.8-2 1.3-3.3 1-1-.2-1.7-1.1-2.1-2-1-2.2-1-4.9-1.1-7.3 0-1.9 0-3.8.2-5.6.1-.7.5-1.1 1-1.3.6-.9 1.7-1.8 2.8-1.5 1.3.3 2 1 2.7 2.1 1.4 2.3 1.9 5.2 1.9 7.8.1 2.3-.3 5.1-2.1 6.8zm-1.2-4.2s0-.2.1-.3c.1-.5.1-1 .2-1.5.1-2.1-.3-4.6-1.1-6.4-.1-.2-.2-.5-.4-.7 0 0-.1-.1-.1-.2v-.1l-.1-.1v.1c-.1.2-.3.4-.5.5l-.1 2.5c0 1.8 0 3.2.1 4.8.1.6.1 1.2.3 1.8 0 .3.1.5.1.7 0 .1.1.1.1.2s0 .1.1.2l.2.5c.1-.1.3-.1.3-.2.1-.1.1-.2.2-.3.1-.1.1-.2.2-.3v-.1c.1-.3.2-.5.3-.8l.1-.3zM45.1 231.2c-.9.8-2 1.3-3.3 1-1-.2-1.7-1.1-2.1-2-1-2.2-1-4.9-1.1-7.3 0-1.9 0-3.8.2-5.6.1-.7.5-1.1 1-1.3.6-.9 1.7-1.8 2.8-1.5 1.3.3 2 1 2.7 2.1 1.4 2.3 1.9 5.2 1.9 7.8.2 2.3-.3 5.1-2.1 6.8zM44 227s0-.2.1-.3c.1-.5.1-1 .2-1.5.1-2.1-.3-4.6-1.1-6.4-.1-.2-.2-.5-.4-.7 0 0-.1-.1-.1-.2v-.1l-.1-.1v.1c-.1.2-.3.4-.5.5l-.1 2.5c0 1.8 0 3.2.1 4.8.1.6.1 1.2.3 1.8 0 .3.1.5.1.7 0 .1.1.1.1.2s0 .1.1.2l.2.5c.1-.1.3-.1.3-.2.1-.1.1-.2.2-.3.1-.1.1-.2.2-.3v-.1c.1-.3.2-.5.3-.8l.1-.3zM53.6 213.9c0-.8.7-1.4 1.5-1.4.3-.2.5-.3.8-.4 2.2-.8 4 .8 5 2.7 1.1 2 1.9 4.5 2 6.8.3 4.1-.5 11-5.8 11.6-1.1.1-1.8-.8-1.8-1.7-.6-.1-1.2-.4-1.4-1.2-.1-3.1-.2-6.3-.2-9.3 0-1.9 0-3.7-.2-5.5 0-.1.1-.3.1-.5v-1.1zm6.1 11.5c0-.6.1-1.4.1-2 0-1.1-.1-2.1-.3-3.4-.1-.6-.4-1.2-.5-1.8 0-.1-.1-.2-.1-.3s-.1-.2-.1-.3c-.1-.2-.2-.4-.3-.7l-.4-.7c-.1-.1-.3-.5-.3-.4l-.3-.3-.3-.3-.1-.1H57h-.1c-.1.1-.2.4-.2.4l-.1.2c0 4.7-.4 9.4.3 14.1v.3c.1 0 .2-.1.1 0 .2-.1.3-.1.5-.3l.1-.1c.1-.1.2-.1.3-.2l.1-.1.1-.1.4-.7c0-.1.2-.2.3-.3.2-.5.4-.7.6-1.2 0-.1.1-.2.1-.3v-.2l.1-.3.1-.9zM198.5 227.8c0 1.6-1.1 3.1-2.4 3.9-2.7 1.6-6.5-.6-6.9-3.6-.3-2 2.8-2.6 3.1-.6.1.9 1 1.6 1.9 1.6.3 0 .7-.3 1-.7.3-.3.3-.6.3-1-.4-1.9-2.7-3.7-4.1-5-1.1-1-2.1-2-2.6-3.5-.5-1.6.2-3.3 1.4-4.4 1.2-1.1 2.8-1.5 4.4-1.1 1.6.4 2.7 1.4 3.5 2.8.4.7-.1 1.7-.8 2.1-.8.4-1.6 0-2.1-.7-.3-.5-.7-.9-1.2-1-.4-.1-.8-.2-1.2 0s-.9.6-1 1.2c-.1.3 0 .6.3 1 .6.9 1.7 1.7 2.6 2.5.8.8 1.7 1.6 2.4 2.5.7 1.1 1.5 2.5 1.4 4zM207.4 230.9c-.1.9-.8 1.6-1.7 1.5-.8-.1-1.6-.9-1.4-1.8 1-5.3-.2-10.8-.2-16.1 0-.9.9-1.6 1.7-1.5.9.1 1.4.9 1.4 1.8 0 5.3 1.2 10.7.2 16.1zM223.6 214.2c-1.1 2.7-2.3 5.4-3.5 8 0 .1 0 .2.1.3.6 1.4 1.1 2.9 1.4 4.3.3 1.3.6 2.5 1.3 3.7 1 1.8-1.9 3.1-2.8 1.3-.7-1.3-1.1-2.8-1.4-4.2-.1-.4-.2-.8-.3-1.1-.7 1.9-1.4 3.8-1.9 5.7-.2.8-1.3 1.2-2 .9-.9-.3-1.1-1.2-.9-2 .8-3.1 2-6 3.3-8.9-1-2.5-2.1-5.1-2.6-7.8-.4-2 2.7-2.6 3.1-.6.3 1.5.8 3 1.3 4.4.7-1.7 1.5-3.4 2.2-5.1.5-1.9 3.4-.8 2.7 1.1zM237.9 216c-.8.1-1.6.1-2.3.1-.4 5.1-.2 10.3-.2 15.5 0 .8-.9 1.5-1.7 1.4-.9-.1-1.4-.9-1.4-1.7 0-5.1-.2-10.2.1-15.3h-1.7c-.9 0-1.5-.9-1.4-1.7.1-.9.9-1.4 1.7-1.4 2.1 0 4.3.3 6.4 0 .8-.1 1.6.4 1.8 1.3.1.8-.5 1.7-1.3 1.8zM249.3 217.8c.6-2.2.8-4.5 1.4-6.6.2-.9 1.3-1.2 2-1 .9.3 1.1 1.2.9 2-.9 3.3-1.1 6.9-2.7 10 .4 3.4.2 6.8.2 10.2 0 .9-.9 1.5-1.7 1.4-.9-.1-1.4-.8-1.4-1.7 0-3 .2-6-.1-9-.1-.1-.1-.1-.2-.3-.9-1.7-1.2-3.5-1.6-5.3-.2-.9-.6-1.6-.9-2.4-.4-.4-.6-1-.4-1.7v-.1c0-.1.1-.3.1-.4.2-.8 1.3-1.2 2-.9s1 .8 1 1.5c0 0 .1.2.1.3.1.3.3.7.4 1 .3.8.5 1.6.7 2.4l.2.6z"/></svg>